SplineFontDB: 3.2
FontName: Untitled1
FullName: Untitled1
FamilyName: Untitled1
Weight: Regular
Copyright: Copyright (c) 2024, 
UComments: "2024-1-27: Created with FontForge (http://fontforge.org)"
Version: 001.000
ItalicAngle: 0
UnderlinePosition: -170
UnderlineWidth: 85
Ascent: 1500
Descent: 200
InvalidEm: 0
LayerCount: 2
Layer: 0 0 "Back" 1
Layer: 1 0 "Fore" 0
XUID: [1021 1018 -996177726 5247994]
OS2Version: 0
OS2_WeightWidthSlopeOnly: 0
OS2_UseTypoMetrics: 1
CreationTime: 1706351666
ModificationTime: 1706351963
OS2TypoAscent: 0
OS2TypoAOffset: 1
OS2TypoDescent: 0
OS2TypoDOffset: 1
OS2TypoLinegap: 0
OS2WinAscent: 0
OS2WinAOffset: 1
OS2WinDescent: 0
OS2WinDOffset: 1
HheadAscent: 0
HheadAOffset: 1
HheadDescent: 0
HheadDOffset: 1
OS2Vendor: 'PfEd'
MarkAttachClasses: 1
DEI: 91125
Encoding: ISO8859-1
UnicodeInterp: none
NameList: AGL For New Fonts
DisplaySize: -48
AntiAlias: 1
FitToEm: 0
WinInfo: 0 27 10
BeginPrivate: 0
EndPrivate
BeginChars: 256 26

StartChar: A
Encoding: 65 65 0
Width: 1367
VWidth: 2048
Flags: HW
LayerCount: 2
Fore
SplineSet
-1 0 m 1
 562 1466 l 1
 771 1466 l 1
 1371 0 l 1
 1150 0 l 1
 979 444 l 1
 366 444 l 1
 205 0 l 1
 -1 0 l 1
422 602 m 1
 919 602 l 1
 766 1008 l 2
 717.333333333 1137.33333333 682.666666667 1238.66666667 662 1312 c 1
 643.333333333 1218 617 1124.66666667 583 1032 c 2
 422 602 l 1
EndSplineSet
EndChar

StartChar: B
Encoding: 66 66 1
Width: 1367
VWidth: 2048
Flags: HW
LayerCount: 2
Fore
SplineSet
151 0 m 1
 151 1466 l 1
 701 1466 l 2
 858.333333333 1466 978.666666667 1431.83333333 1062 1363.5 c 128
 1145.33333333 1295.16666667 1187 1204.33333333 1187 1091 c 0
 1187 1021.66666667 1170 961 1136 909 c 128
 1102 857 1050.66666667 814 982 780 c 1
 1066 757.333333333 1133 714.333333333 1183 651 c 128
 1233 587.666666667 1258 512.333333333 1258 425 c 0
 1258 301 1216.33333333 199.166666667 1133 119.5 c 128
 1049.66666667 39.8333333333 908.666666667 0 710 0 c 2
 151 0 l 1
345 850 m 1
 662 850 l 2
 778 850 862.666666667 865.666666667 916 897 c 128
 969.333333333 928.333333333 996 985.666666667 996 1069 c 0
 996 1150.33333333 971 1208 921 1242 c 128
 871 1276 776.666666667 1293 638 1293 c 2
 345 1293 l 1
 345 850 l 1
345 173 m 1
 710 173 l 2
 829.333333333 173 917 193.166666667 973 233.5 c 128
 1029 273.833333333 1057 337 1057 423 c 0
 1057 513 1027 577.833333333 967 617.5 c 128
 907 657.166666667 812.666666667 677 684 677 c 2
 345 677 l 1
 345 173 l 1
EndSplineSet
EndChar

StartChar: C
Encoding: 67 67 2
Width: 1479
VWidth: 2048
Flags: HW
LayerCount: 2
Fore
SplineSet
1207 514 m 1
 1401 465 l 1
 1361 305 1287.16666667 183.333333333 1179.5 100 c 128
 1071.83333333 16.6666666667 943.333333333 -25 794 -25 c 0
 557.333333333 -25 383.333333333 49.3333333333 272 198 c 128
 160.666666667 346.666666667 105 528.666666667 105 744 c 0
 105 978.666666667 169.333333333 1161.83333333 298 1293.5 c 128
 426.666666667 1425.16666667 593 1491 797 1491 c 0
 943.666666667 1491 1067.5 1453.16666667 1168.5 1377.5 c 128
 1269.5 1301.83333333 1338.66666667 1197.33333333 1376 1064 c 1
 1185 1019 l 1
 1119 1223 992 1325 804 1325 c 0
 637.333333333 1325 512.5 1272.5 429.5 1167.5 c 128
 346.5 1062.5 305 923.666666667 305 751 c 0
 305 543.666666667 348.5 390.166666667 435.5 290.5 c 128
 522.5 190.833333333 636.666666667 141 778 141 c 0
 885.333333333 141 977.5 172.333333333 1054.5 235 c 128
 1131.5 297.666666667 1182.33333333 390.666666667 1207 514 c 1
EndSplineSet
EndChar

StartChar: D
Encoding: 68 68 3
Width: 1479
VWidth: 2048
Flags: HW
LayerCount: 2
Fore
SplineSet
161 0 m 1
 161 1466 l 1
 666 1466 l 2
 788 1466 886.666666667 1456.16666667 962 1436.5 c 128
 1037.33333333 1416.83333333 1107 1376 1171 1314 c 128
 1235 1252 1284.66666667 1173.16666667 1320 1077.5 c 128
 1355.33333333 981.833333333 1373 870.666666667 1373 744 c 0
 1373 566.666666667 1340.66666667 418.833333333 1276 300.5 c 128
 1211.33333333 182.166666667 1130 102.5 1032 61.5 c 128
 934 20.5 820 0 690 0 c 2
 161 0 l 1
355 173 m 1
 668 173 l 2
 782.666666667 173 873.833333333 187.833333333 941.5 217.5 c 128
 1009.16666667 247.166666667 1064.66666667 306.5 1108 395.5 c 128
 1151.33333333 484.5 1173 601 1173 745 c 0
 1173 889.666666667 1149.16666667 1004.66666667 1101.5 1090 c 128
 1053.83333333 1175.33333333 997.5 1230.5 932.5 1255.5 c 128
 867.5 1280.5 777.666666667 1293 663 1293 c 2
 355 1293 l 1
 355 173 l 1
EndSplineSet
EndChar

StartChar: E
Encoding: 69 69 4
Width: 1367
VWidth: 2048
Flags: HW
LayerCount: 2
Fore
SplineSet
162 0 m 1
 162 1466 l 1
 1222 1466 l 1
 1222 1293 l 1
 356 1293 l 1
 356 844 l 1
 1167 844 l 1
 1167 672 l 1
 356 672 l 1
 356 173 l 1
 1256 173 l 1
 1256 0 l 1
 162 0 l 1
EndSplineSet
EndChar

StartChar: F
Encoding: 70 70 5
Width: 1254
VWidth: 2048
Flags: HW
LayerCount: 2
Fore
SplineSet
164 0 m 1
 164 1466 l 1
 1153 1466 l 1
 1153 1293 l 1
 358 1293 l 1
 358 839 l 1
 1046 839 l 1
 1046 666 l 1
 358 666 l 1
 358 0 l 1
 164 0 l 1
EndSplineSet
EndChar

StartChar: G
Encoding: 71 71 6
Width: 1593
VWidth: 2048
Flags: HW
LayerCount: 2
Fore
SplineSet
841 575 m 1
 841 748 l 1
 1462 748 l 1
 1462 204 l 1
 1368 128 1270.5 70.8333333333 1169.5 32.5 c 128
 1068.5 -5.83333333333 963.666666667 -25 855 -25 c 0
 625.666666667 -25 443.5 43.8333333333 308.5 181.5 c 128
 173.5 319.166666667 106 500.666666667 106 726 c 0
 106 948.666666667 169.5 1131.83333333 296.5 1275.5 c 128
 423.5 1419.16666667 604.666666667 1491 840 1491 c 0
 1166.66666667 1491 1366.66666667 1346 1440 1056 c 1
 1265 1008 l 1
 1213 1219.33333333 1071.66666667 1325 841 1325 c 0
 658.333333333 1325 523.5 1269.16666667 436.5 1157.5 c 128
 349.5 1045.83333333 306 907.666666667 306 743 c 0
 306 543 356 394.166666667 456 296.5 c 128
 556 198.833333333 685.333333333 150 844 150 c 0
 934 150 1019.66666667 167.666666667 1101 203 c 128
 1182.33333333 238.333333333 1239.33333333 271.333333333 1272 302 c 1
 1272 575 l 1
 841 575 l 1
EndSplineSet
EndChar

StartChar: H
Encoding: 72 72 7
Width: 1479
VWidth: 2048
Flags: HW
LayerCount: 2
Fore
SplineSet
164 0 m 1
 164 1466 l 1
 358 1466 l 1
 358 864 l 1
 1120 864 l 1
 1120 1466 l 1
 1314 1466 l 1
 1314 0 l 1
 1120 0 l 1
 1120 691 l 1
 358 691 l 1
 358 0 l 1
 164 0 l 1
EndSplineSet
EndChar

StartChar: I
Encoding: 73 73 8
Width: 571
VWidth: 2048
Flags: HW
LayerCount: 2
Fore
SplineSet
188 0 m 1
 188 1466 l 1
 382 1466 l 1
 382 0 l 1
 188 0 l 1
EndSplineSet
EndChar

StartChar: J
Encoding: 74 74 9
Width: 1024
VWidth: 2048
Flags: HW
LayerCount: 2
Fore
SplineSet
59 416 m 1
 234 440 l 1
 238 245.333333333 310.666666667 148 452 148 c 0
 530.666666667 148 586.833333333 170.833333333 620.5 216.5 c 128
 654.166666667 262.166666667 671 342 671 456 c 2
 671 1466 l 1
 865 1466 l 1
 865 467 l 2
 865 273 825.333333333 142.5 746 75.5 c 128
 666.666666667 8.5 569 -25 453 -25 c 0
 323 -25 224.333333333 12.3333333333 157 87 c 0
 91.6666666667 159 59 263.333333333 59 400 c 0
 59 408 59 408 59 416 c 1
EndSplineSet
EndChar

StartChar: K
Encoding: 75 75 10
Width: 1367
VWidth: 2048
Flags: HW
LayerCount: 2
Fore
SplineSet
151 0 m 1
 151 1466 l 1
 345 1466 l 1
 345 739 l 1
 1073 1466 l 1
 1336 1466 l 1
 721 872 l 1
 1363 0 l 1
 1107 0 l 1
 585 742 l 1
 345 508 l 1
 345 0 l 1
 151 0 l 1
EndSplineSet
EndChar

StartChar: L
Encoding: 76 76 11
Width: 1139
VWidth: 2048
Flags: HW
LayerCount: 2
Fore
SplineSet
154 0 m 1
 154 1466 l 1
 348 1466 l 1
 348 173 l 1
 1070 173 l 1
 1070 0 l 1
 154 0 l 1
EndSplineSet
EndChar

StartChar: M
Encoding: 77 77 12
Width: 1706
VWidth: 2048
Flags: HW
LayerCount: 2
Fore
SplineSet
154 0 m 1
 154 1466 l 1
 446 1466 l 1
 793 428 l 1
 863 211 l 1
 877 257.666666667 903 336 941 446 c 2
 1292 1466 l 1
 1553 1466 l 1
 1553 0 l 1
 1366 0 l 1
 1366 1227 l 1
 940 0 l 1
 765 0 l 1
 341 1248 l 1
 341 0 l 1
 154 0 l 1
EndSplineSet
EndChar

StartChar: N
Encoding: 78 78 13
Width: 1479
VWidth: 2048
Flags: HW
LayerCount: 2
Fore
SplineSet
162 0 m 1
 162 1466 l 1
 361 1466 l 1
 1131 315 l 1
 1131 1466 l 1
 1317 1466 l 1
 1317 0 l 1
 1118 0 l 1
 348 1152 l 1
 348 0 l 1
 162 0 l 1
EndSplineSet
EndChar

StartChar: O
Encoding: 79 79 14
Width: 1593
VWidth: 2048
Flags: HW
LayerCount: 2
Fore
SplineSet
96 714 m 0
 96 958 161.666666667 1148.66666667 293 1286 c 128
 424.333333333 1423.33333333 592.666666667 1492 798 1492 c 0
 1004 1492 1172.16666667 1422.16666667 1302.5 1282.5 c 128
 1432.83333333 1142.83333333 1498 959 1498 731 c 0
 1498 504.333333333 1432.33333333 321.666666667 1301 183 c 128
 1169.66666667 44.3333333333 1001.66666667 -25 797 -25 c 0
 649.666666667 -25 520.5 11.8333333333 409.5 85.5 c 128
 298.5 159.166666667 218.5 253.833333333 169.5 369.5 c 128
 120.5 485.166666667 96 600 96 714 c 0
296 711 m 0
 296 543.666666667 341.333333333 406.833333333 432 300.5 c 128
 522.666666667 194.166666667 644 141 796 141 c 0
 945.333333333 141 1066.33333333 193.5 1159 298.5 c 128
 1251.66666667 403.5 1298 548 1298 732 c 0
 1298 918.666666667 1251.33333333 1064.16666667 1158 1168.5 c 128
 1064.66666667 1272.83333333 945 1325 799 1325 c 0
 655.666666667 1325 536 1276 440 1178 c 128
 344 1080 296 924.333333333 296 711 c 0
EndSplineSet
EndChar

StartChar: P
Encoding: 80 80 15
Width: 1367
VWidth: 2048
Flags: HW
LayerCount: 2
Fore
SplineSet
158 0 m 1
 158 1466 l 1
 711 1466 l 2
 837.666666667 1466 938.666666667 1455 1014 1433 c 128
 1089.33333333 1411 1152 1365.16666667 1202 1295.5 c 128
 1252 1225.83333333 1277 1141.33333333 1277 1042 c 0
 1277 916 1236.66666667 810.166666667 1156 724.5 c 128
 1075.33333333 638.833333333 932.666666667 596 728 596 c 2
 352 596 l 1
 352 0 l 1
 158 0 l 1
352 769 m 1
 731 769 l 2
 846.333333333 769 932.833333333 791.333333333 990.5 836 c 128
 1048.16666667 880.666666667 1077 947.333333333 1077 1036 c 0
 1077 1098 1061.33333333 1150.66666667 1030 1194 c 128
 998.666666667 1237.33333333 962.166666667 1264.66666667 920.5 1276 c 128
 878.833333333 1287.33333333 814.333333333 1293 727 1293 c 2
 352 1293 l 1
 352 769 l 1
EndSplineSet
EndChar

StartChar: Q
Encoding: 81 81 16
Width: 1593
VWidth: 2048
Flags: HW
LayerCount: 2
Fore
SplineSet
1277 157 m 1
 1379 89 1462 43.6666666667 1526 21 c 1
 1469 -114 l 1
 1363 -76.6666666667 1258 -16.6666666667 1154 66 c 1
 1045.33333333 5.33333333333 925.333333333 -25 794 -25 c 0
 580 -25 410.166666667 48.1666666667 284.5 194.5 c 128
 158.833333333 340.833333333 96 520.333333333 96 733 c 0
 96 955 160.166666667 1137 288.5 1279 c 128
 416.833333333 1421 586.666666667 1492 798 1492 c 0
 942 1492 1068.16666667 1457.16666667 1176.5 1387.5 c 128
 1284.83333333 1317.83333333 1365.5 1226 1418.5 1112 c 128
 1471.5 998 1498 872 1498 734 c 0
 1498 492 1424.33333333 299.666666667 1277 157 c 1
850 405 m 1
 962.666666667 374.333333333 1055 327.666666667 1127 265 c 1
 1241 369 1298 525.333333333 1298 734 c 0
 1298 911.333333333 1253.66666667 1054.16666667 1165 1162.5 c 128
 1076.33333333 1270.83333333 954.333333333 1325 799 1325 c 0
 652.333333333 1325 531.833333333 1274.83333333 437.5 1174.5 c 128
 343.166666667 1074.16666667 296 927 296 733 c 0
 296 547.666666667 342 402.666666667 434 298 c 128
 526 193.333333333 646.666666667 141 796 141 c 0
 868 141 934.333333333 154 995 180 c 1
 933.666666667 220.666666667 869.666666667 248.666666667 803 264 c 1
 850 405 l 1
EndSplineSet
EndChar

StartChar: R
Encoding: 82 82 17
Width: 1479
VWidth: 2048
Flags: HW
LayerCount: 2
Fore
SplineSet
164 0 m 1
 164 1466 l 1
 814 1466 l 2
 928 1466 1019.66666667 1455.66666667 1089 1435 c 128
 1158.33333333 1414.33333333 1216.83333333 1370.5 1264.5 1303.5 c 128
 1312.16666667 1236.5 1336 1157.33333333 1336 1066 c 0
 1336 959.333333333 1301 870.333333333 1231 799 c 128
 1161 727.666666667 1058.33333333 683.666666667 923 667 c 1
 1019.66666667 626.333333333 1112.33333333 537 1201 399 c 2
 1456 0 l 1
 1212 0 l 1
 1018 305 l 2
 916.666666667 463 840.833333333 560.166666667 790.5 596.5 c 128
 740.166666667 632.833333333 671 651 583 651 c 2
 358 651 l 1
 358 0 l 1
 164 0 l 1
358 819 m 1
 775 819 l 2
 895.666666667 819 986 839.5 1046 880.5 c 128
 1106 921.5 1136 983 1136 1065 c 0
 1136 1127.66666667 1113.16666667 1183.16666667 1067.5 1231.5 c 128
 1021.83333333 1279.83333333 940 1304 822 1304 c 2
 358 1304 l 1
 358 819 l 1
EndSplineSet
EndChar

StartChar: S
Encoding: 83 83 18
Width: 1367
VWidth: 2048
Flags: HW
LayerCount: 2
Fore
SplineSet
92 471 m 1
 275 487 l 1
 286.333333333 367.666666667 334 281.5 418 228.5 c 128
 502 175.5 597.333333333 149 704 149 c 0
 816.666666667 149 906.166666667 171.333333333 972.5 216 c 128
 1038.83333333 260.666666667 1072 321.333333333 1072 398 c 0
 1072 446 1058 487 1030 521 c 128
 1002 555 962.833333333 581.5 912.5 600.5 c 128
 862.166666667 619.5 767.333333333 645.666666667 628 679 c 0
 509.333333333 707.666666667 419.166666667 736.833333333 357.5 766.5 c 128
 295.833333333 796.166666667 245.5 838.666666667 206.5 894 c 128
 167.5 949.333333333 148 1013.66666667 148 1087 c 0
 148 1205 194.666666667 1301.83333333 288 1377.5 c 128
 381.333333333 1453.16666667 506.666666667 1491 664 1491 c 0
 831.333333333 1491 963.5 1452.16666667 1060.5 1374.5 c 128
 1157.5 1296.83333333 1209 1189.66666667 1215 1053 c 1
 1029 1039 l 1
 1013.66666667 1226.33333333 895.333333333 1320 674 1320 c 0
 566.666666667 1320 483.333333333 1300.5 424 1261.5 c 128
 364.666666667 1222.5 335 1168.66666667 335 1100 c 0
 335 1040 357.166666667 994.166666667 401.5 962.5 c 128
 445.833333333 930.833333333 539.666666667 898.666666667 683 866 c 0
 831 832.666666667 941.833333333 800.5 1015.5 769.5 c 128
 1089.16666667 738.5 1148.16666667 692.166666667 1192.5 630.5 c 128
 1236.83333333 568.833333333 1259 497 1259 415 c 0
 1259 285.666666667 1209.16666667 180 1109.5 98 c 128
 1009.83333333 16 879 -25 717 -25 c 0
 511 -25 356 21.5 252 114.5 c 128
 148 207.5 94.6666666667 326.333333333 92 471 c 1
EndSplineSet
EndChar

StartChar: T
Encoding: 84 84 19
Width: 1254
VWidth: 2048
Flags: HW
LayerCount: 2
Fore
SplineSet
527 0 m 1
 527 1293 l 1
 44 1293 l 1
 44 1466 l 1
 1206 1466 l 1
 1206 1293 l 1
 721 1293 l 1
 721 0 l 1
 527 0 l 1
EndSplineSet
EndChar

StartChar: U
Encoding: 85 85 20
Width: 1479
VWidth: 2048
Flags: HW
LayerCount: 2
Fore
SplineSet
1122 1466 m 1
 1316 1466 l 1
 1316 620 l 2
 1316 474.666666667 1299.5 357.5 1266.5 268.5 c 128
 1233.5 179.5 1172.33333333 108.333333333 1083 55 c 128
 993.666666667 1.66666666667 879.333333333 -25 740 -25 c 0
 534 -25 386.333333333 25.8333333333 297 127.5 c 128
 207.666666667 229.166666667 163 393.333333333 163 620 c 2
 163 1466 l 1
 357 1466 l 1
 357 620 l 2
 357 492.666666667 369.166666667 398.166666667 393.5 336.5 c 128
 417.833333333 274.833333333 459.5 228.333333333 518.5 197 c 128
 577.5 165.666666667 645.666666667 150 723 150 c 0
 869 150 972 182.666666667 1032 248 c 128
 1092 313.333333333 1122 437.333333333 1122 620 c 2
 1122 1466 l 1
EndSplineSet
EndChar

StartChar: V
Encoding: 86 86 21
Width: 1367
VWidth: 2048
Flags: HW
LayerCount: 2
Fore
SplineSet
578 0 m 1
 10 1466 l 1
 220 1466 l 1
 601 401 l 2
 634.333333333 308.333333333 660 228.333333333 678 161 c 1
 700.666666667 241 727 321 757 401 c 2
 1153 1466 l 1
 1351 1466 l 1
 777 0 l 1
 578 0 l 1
EndSplineSet
EndChar

StartChar: W
Encoding: 87 87 22
Width: 1933
VWidth: 2048
Flags: HW
LayerCount: 2
Fore
SplineSet
410 0 m 1
 21 1466 l 1
 220 1466 l 1
 443 505 l 2
 468.333333333 397 489 297 505 205 c 1
 571 476 l 1
 850 1466 l 1
 1084 1466 l 1
 1294 724 l 2
 1346 540.666666667 1384 367.666666667 1408 205 c 1
 1426.66666667 297.666666667 1451 404 1481 524 c 2
 1711 1466 l 1
 1906 1466 l 1
 1504 0 l 1
 1317 0 l 1
 1008 1117 l 1
 962 1289 l 1
 947.333333333 1225 933 1167.66666667 919 1117 c 2
 608 0 l 1
 410 0 l 1
EndSplineSet
EndChar

StartChar: X
Encoding: 88 88 23
Width: 1367
VWidth: 2048
Flags: HW
LayerCount: 2
Fore
SplineSet
9 0 m 1
 576 764 l 1
 76 1466 l 1
 307 1466 l 1
 573 1090 l 2
 632.333333333 1006.66666667 671.666666667 946.666666667 691 910 c 1
 723.666666667 963.333333333 762.333333333 1019 807 1077 c 2
 1102 1466 l 1
 1313 1466 l 1
 798 775 l 1
 1353 0 l 1
 1113 0 l 1
 744 523 l 2
 722 555 700.666666667 587.666666667 680 621 c 1
 650 571 626.666666667 534.333333333 610 511 c 2
 242 0 l 1
 9 0 l 1
EndSplineSet
EndChar

StartChar: Y
Encoding: 89 89 24
Width: 1367
VWidth: 2048
Flags: HW
LayerCount: 2
Fore
SplineSet
571 0 m 1
 571 621 l 1
 6 1466 l 1
 242 1466 l 1
 531 1024 l 2
 587.666666667 936.666666667 637.333333333 854 680 776 c 1
 724 852.666666667 777.333333333 939 840 1035 c 2
 1124 1466 l 1
 1350 1466 l 1
 765 621 l 1
 765 0 l 1
 571 0 l 1
EndSplineSet
EndChar

StartChar: Z
Encoding: 90 90 25
Width: 1254
VWidth: 2048
Flags: HW
LayerCount: 2
Fore
SplineSet
37 0 m 1
 37 180 l 1
 788 1119 l 2
 841.333333333 1185.66666667 892 1243.66666667 940 1293 c 1
 122 1293 l 1
 122 1466 l 1
 1172 1466 l 1
 1172 1293 l 1
 349 276 l 2
 319.666666667 241.333333333 290 207 260 173 c 1
 1196 173 l 1
 1196 0 l 1
 37 0 l 1
EndSplineSet
EndChar
